<svg width="93" height="30" viewBox="0 0 93 30" fill="none" xmlns="http://www.w3.org/2000/svg">
<g clip-path="url(#clip0_2_994)">
<path d="M44.6256 2.6975H41.8635L36.7746 9.45804L31.7105 2.6975H28.9485L35.4574 11.2225L28.4784 20.3248H31.2405L36.7737 12.9328L42.3321 20.3248H45.0942L38.1147 11.222L44.6256 2.6975Z" fill="#E3C69E"/>
<path d="M51.5856 2.6975H49.405V20.3257H51.5856V2.6975Z" fill="#E3C69E"/>
<path d="M70.2234 12.5444C70.8965 12.18 71.4641 11.6458 71.8706 10.9943C72.3452 10.1621 72.5732 9.21063 72.5278 8.25217C72.5612 7.4997 72.4343 6.74874 72.1557 6.04969C71.8771 5.35065 71.4532 4.7197 70.9125 4.1992C69.7184 3.15808 68.1718 2.6204 66.5941 2.69798H58.2041V20.3252H60.3851V13.6481H66.2188L70.3619 20.2739L70.3948 20.3267H72.9854L68.4137 13.2641C69.042 13.0937 69.649 12.8522 70.2234 12.5444ZM60.3851 4.79039H66.3588C67.4072 4.73884 68.4388 5.07018 69.2638 5.72344C69.6221 6.03585 69.9056 6.42582 70.093 6.86414C70.2805 7.30246 70.367 7.7778 70.3462 8.25457C70.39 8.9821 70.1632 9.69998 69.71 10.2683C69.2874 10.7469 68.7395 11.0958 68.129 11.2752C67.521 11.4609 66.8894 11.5569 66.2541 11.56H60.3851V4.79039Z" fill="#E3C69E"/>
<path d="M90.8194 2.69798V12.7741C90.8677 13.9006 90.6021 15.0183 90.0527 16.0009C89.5849 16.7826 88.903 17.4118 88.0887 17.8128C87.2898 18.1951 86.4163 18.3934 85.5317 18.3934C84.6471 18.3934 83.7736 18.1951 82.9746 17.8128C82.1571 17.4166 81.4739 16.7863 81.0107 16.0009C80.4698 15.0154 80.2091 13.8989 80.2573 12.7741V2.69798H78.0772V12.7189C78.0465 14.1453 78.3741 15.5564 79.0296 16.8213C79.6376 17.9646 80.552 18.9133 81.6688 19.5595C82.8589 20.2017 84.1886 20.5365 85.5388 20.5342C86.889 20.5319 88.2176 20.1924 89.4055 19.5461C90.5213 18.8931 91.4351 17.9408 92.0447 16.7954C92.6985 15.5395 93.0262 14.1375 92.9971 12.7199V2.69894L90.8194 2.69798Z" fill="#E3C69E"/>
<path d="M22.3857 10.7992C22.3808 10.6727 22.3274 10.5529 22.2368 10.4651C22.1461 10.3772 22.0253 10.3281 21.8995 10.3279H21.618C21.5524 10.3282 21.4876 10.3417 21.4273 10.3676C21.367 10.3936 21.3125 10.4314 21.267 10.479C21.2218 10.5271 21.1866 10.5838 21.1634 10.6458C21.1402 10.7078 21.1294 10.7738 21.1318 10.84C21.138 10.9838 21.1427 11.1277 21.1427 11.2758C21.1409 12.6304 20.8664 13.9705 20.3359 15.2153C19.8053 16.4601 19.0296 17.5837 18.0558 18.5183C17.0819 19.4528 15.93 20.179 14.6696 20.6528C13.4092 21.1266 12.0665 21.3384 10.7226 21.2752C8.25745 21.1412 5.9284 20.0949 4.18275 18.3374C2.43711 16.5798 1.39795 14.2349 1.26485 11.7529C1.16143 9.57971 1.76415 7.43176 2.98174 5.63431C4.19933 3.83686 5.96548 2.48781 8.01275 1.79145C10.06 1.09508 12.2769 1.08932 14.3277 1.77504C16.3785 2.46076 18.1516 3.80062 19.3783 5.59171C19.4253 5.65962 19.4885 5.71449 19.5621 5.75122C19.6357 5.78795 19.7174 5.80535 19.7995 5.80181C19.8816 5.79827 19.9615 5.77391 20.0317 5.73097C20.1019 5.68804 20.1603 5.62793 20.2013 5.55623C20.2956 5.39183 20.3397 5.20307 20.328 5.01356C20.3163 4.82406 20.2494 4.64223 20.1355 4.49085C19.0887 3.10137 17.7379 1.97357 16.1879 1.19507C14.6379 0.41657 12.9305 0.00832265 11.1983 0.00204468C9.6833 0.00343293 8.18428 0.314049 6.79184 0.915126C5.39941 1.5162 4.14245 2.39526 3.09693 3.49919C2.05141 4.60311 1.23903 5.90899 0.70887 7.33791C0.17871 8.76683 -0.0582193 10.2891 0.0123957 11.8128C0.161848 14.608 1.33185 17.249 3.29765 19.2285C5.26344 21.208 7.88637 22.3863 10.6626 22.5372C10.844 22.5458 11.0235 22.5496 11.204 22.5496C14.1716 22.5441 17.0159 21.3542 19.1136 19.2409C21.2114 17.1276 22.3914 14.2632 22.3952 11.2754C22.3966 11.1157 22.3919 10.9575 22.3857 10.7992Z" fill="#E3C69E"/>
<path d="M16.021 7.64084C16.0939 7.62021 16.1605 7.58138 16.2146 7.52795C16.2687 7.47452 16.3086 7.40822 16.3304 7.33518C16.3523 7.26214 16.3556 7.18472 16.3398 7.11009C16.3241 7.03546 16.29 6.96602 16.2405 6.90821C15.1661 5.64924 13.6665 4.83572 12.0312 4.62472C10.396 4.41373 8.74108 4.82022 7.38606 5.76572C6.03104 6.71122 5.07201 8.12867 4.69415 9.74436C4.31629 11.3601 4.5464 13.0594 5.34005 14.5143C6.1337 15.9692 7.4346 17.0764 8.99155 17.6222C10.5485 18.168 12.2511 18.1136 13.7706 17.4696C15.29 16.8256 16.5186 15.6375 17.2191 14.1349C17.9196 12.6323 18.0423 10.9217 17.5635 9.33337C17.5302 9.22285 17.4563 9.1293 17.3568 9.07182C17.2573 9.01434 17.1398 8.99727 17.0282 9.02412L16.8696 9.06199C16.8093 9.07585 16.7525 9.10215 16.7028 9.13925C16.6531 9.17634 16.6116 9.22342 16.5809 9.2775C16.5502 9.33157 16.5309 9.39148 16.5244 9.45342C16.5179 9.51536 16.5242 9.578 16.5429 9.63736C16.9475 10.9684 16.8489 12.4031 16.266 13.6653C15.6832 14.9276 14.6573 15.9282 13.3858 16.4748C12.1143 17.0213 10.687 17.0752 9.37842 16.6259C8.06987 16.1767 6.97253 15.2561 6.29755 14.0413C5.62257 12.8264 5.41762 11.4032 5.72214 10.0454C6.02666 8.68765 6.81913 7.49119 7.94708 6.68627C9.07504 5.88135 10.4588 5.52483 11.8321 5.68529C13.2054 5.84576 14.4713 6.51188 15.3862 7.5555C15.4427 7.61926 15.5159 7.6658 15.5974 7.68987C15.6788 7.71393 15.7654 7.71456 15.8472 7.69167L16.021 7.64084Z" fill="#E3C69E"/>
<path d="M11.1983 7.65043C12.1158 7.64967 12.9986 8.00338 13.6646 8.63862C13.742 8.71184 13.8442 8.75261 13.9504 8.75261C14.0566 8.75261 14.1587 8.71184 14.2361 8.63862L14.3152 8.56382C14.3563 8.52457 14.3891 8.47729 14.4115 8.42486C14.4339 8.37243 14.4455 8.31595 14.4455 8.25888C14.4455 8.2018 14.4339 8.14533 14.4115 8.0929C14.3891 8.04047 14.3563 7.99318 14.3152 7.95394C13.4885 7.16765 12.399 6.722 11.2619 6.705C10.1248 6.68799 9.02262 7.10085 8.17308 7.86207C7.32355 8.62329 6.78836 9.67754 6.67317 10.8167C6.55799 11.9558 6.8712 13.097 7.55094 14.015C8.23069 14.9329 9.22757 15.5609 10.3448 15.775C11.462 15.9891 12.6183 15.7736 13.5854 15.1712C14.5525 14.5688 15.2602 13.6231 15.5686 12.5211C15.877 11.419 15.7639 10.2405 15.2514 9.2183C15.2266 9.16879 15.1923 9.12474 15.1504 9.08869C15.1086 9.05264 15.06 9.02531 15.0076 9.00829C14.9019 8.97415 14.787 8.98346 14.688 9.03418L14.5928 9.08213C14.4955 9.13321 14.422 9.22076 14.3883 9.32589C14.3545 9.43102 14.3631 9.5453 14.4123 9.64407C14.6672 10.1491 14.7993 10.7078 14.7976 11.2743C14.7974 11.991 14.5861 12.6915 14.1905 13.2874C13.7949 13.8832 13.2326 14.3475 12.5749 14.6216C11.9172 14.8957 11.1935 14.9673 10.4954 14.8274C9.79723 14.6874 9.15599 14.3421 8.65273 13.8352C8.14948 13.3284 7.80682 12.6826 7.66807 11.9796C7.52932 11.2767 7.60072 10.5481 7.87324 9.88597C8.14576 9.22387 8.60717 8.65799 9.1991 8.2599C9.79104 7.86181 10.4869 7.64938 11.1988 7.64947L11.1983 7.65043Z" fill="#E3C69E"/>
<path d="M16.5882 4.11961C15.0412 2.92739 13.1464 2.28315 11.1983 2.28707C9.96955 2.28938 8.7544 2.54632 7.62854 3.04191C6.50267 3.5375 5.49018 4.26112 4.6541 5.16773C3.81281 6.07312 3.16855 7.14538 2.76255 8.31588C2.35655 9.48638 2.19776 10.7293 2.29633 11.9652C2.46726 14.1014 3.38772 16.1066 4.89294 17.6219C6.39816 19.1372 8.38988 20.0637 10.5116 20.2356C10.7445 20.2538 10.975 20.2624 11.2055 20.2624C13.4547 20.2677 15.6212 19.4091 17.2634 17.8617C18.5272 16.6845 19.4255 15.1642 19.8499 13.4843C20.2743 11.8043 20.2066 10.0366 19.655 8.39457C19.6 8.23364 19.4964 8.09407 19.3586 7.99544C19.2209 7.89681 19.0559 7.84407 18.8869 7.84462C18.8094 7.84433 18.7331 7.86306 18.6645 7.89919C18.5959 7.93531 18.537 7.98774 18.4931 8.05192C18.4491 8.11611 18.4214 8.19012 18.4122 8.26754C18.4031 8.34496 18.4129 8.42345 18.4407 8.49622C19.0535 10.1395 19.1134 11.9399 18.6111 13.6208C18.2869 14.7601 17.6976 15.8051 16.892 16.6691C16.0864 17.5332 15.0878 18.1914 13.979 18.5891C12.7852 19.0345 11.502 19.1815 10.2394 19.0174C8.97678 18.8532 7.77265 18.383 6.73042 17.6469C5.06588 16.4592 3.934 14.6582 3.58061 12.6351C3.22722 10.612 3.68087 8.53025 4.84303 6.84197C6.00518 5.15368 7.78198 3.99521 9.78751 3.61818C11.793 3.24114 13.8653 3.67599 15.5543 4.82827C15.6922 4.92221 15.8519 4.97868 16.0178 4.99221C16.1838 5.00573 16.3504 4.97585 16.5015 4.90546C16.5733 4.87231 16.6354 4.82099 16.6817 4.7565C16.728 4.69202 16.7569 4.61656 16.7657 4.53748C16.7744 4.4584 16.7626 4.37839 16.7315 4.30525C16.7004 4.2321 16.651 4.16783 16.5882 4.11961Z" fill="#E3C69E"/>
<path d="M3.47164 26.9966H3.78261L4.92839 29.9377H4.6298L4.27359 29.0233H2.94351L2.59253 29.9377H2.29395L3.47164 26.9966ZM3.03018 28.7836H4.17978L3.61546 27.2766L3.03018 28.7836Z" fill="#E3C69E"/>
<path d="M7.149 26.9966H7.45997L9.16198 29.4846H9.17055V26.9966H9.44867V29.9377H9.1377L7.43473 27.4497H7.42521V29.9377H7.149V26.9966Z" fill="#E3C69E"/>
<path d="M11.6726 26.9966H13.989V27.2363H12.9698V29.9391H12.6917V27.2349H11.6726V26.9966Z" fill="#E3C69E"/>
<path d="M16.2396 26.9966H16.5177V29.9377H16.2396V26.9966Z" fill="#E3C69E"/>
<path d="M21.2194 27.8865C21.1776 27.6803 21.0647 27.4956 20.9007 27.3651C20.7366 27.2346 20.5321 27.1668 20.3232 27.1735C19.5502 27.1735 19.2221 27.8242 19.2221 28.4681C19.2221 29.112 19.5502 29.7627 20.3232 29.7627C20.5703 29.7576 20.8059 29.6566 20.9807 29.4806C21.1554 29.3046 21.2558 29.0674 21.2608 28.8186H21.5389C21.537 28.9768 21.5039 29.1331 21.4416 29.2784C21.3793 29.4237 21.2891 29.5551 21.1761 29.6652C21.0631 29.7752 20.9296 29.8616 20.7833 29.9194C20.637 29.9772 20.4808 30.0052 20.3236 30.0019C20.1296 30.003 19.9375 29.9628 19.7599 29.8841C19.5823 29.8054 19.4232 29.69 19.2929 29.5452C19.1626 29.4004 19.064 29.2297 19.0037 29.044C18.9433 28.8583 18.9225 28.6619 18.9426 28.4676C18.9225 28.2733 18.9433 28.0769 19.0037 27.8912C19.064 27.7056 19.1626 27.5348 19.2929 27.39C19.4232 27.2453 19.5823 27.1298 19.7599 27.0511C19.9375 26.9724 20.1296 26.9323 20.3236 26.9333C20.602 26.917 20.8765 27.0055 21.0937 27.1816C21.3109 27.3576 21.4553 27.6087 21.4989 27.886L21.2194 27.8865Z" fill="#E3C69E"/>
<path d="M23.9419 26.9966H24.2201V29.9377H23.9419V26.9966Z" fill="#E3C69E"/>
<path d="M26.7859 26.9966H28.0831C28.1973 26.9888 28.3119 27.0047 28.4197 27.0434C28.5275 27.082 28.6263 27.1426 28.7099 27.2213C28.7935 27.2999 28.8601 27.3951 28.9057 27.5008C28.9513 27.6064 28.9748 27.7204 28.9748 27.8357C28.9748 27.9509 28.9513 28.0649 28.9057 28.1706C28.8601 28.2763 28.7935 28.3714 28.7099 28.4501C28.6263 28.5288 28.5275 28.5893 28.4197 28.6279C28.3119 28.6666 28.1973 28.6825 28.0831 28.6747H27.064V29.9353H26.7859V26.9966ZM27.064 28.4374H28.0217C28.4108 28.4374 28.6727 28.2456 28.6727 27.8361C28.6773 27.7512 28.6632 27.6663 28.6314 27.5875C28.5995 27.5087 28.5507 27.438 28.4884 27.3805C28.4261 27.323 28.352 27.2801 28.2713 27.255C28.1906 27.2298 28.1054 27.2229 28.0217 27.2349H27.0645L27.064 28.4374Z" fill="#E3C69E"/>
<path d="M31.8724 26.9966H32.1834L33.3292 29.9377H33.0306L32.6744 29.0233H31.3443L30.9919 29.9377H30.6933L31.8724 26.9966ZM31.43 28.7836H32.581L32.0153 27.2761L31.43 28.7836Z" fill="#E3C69E"/>
<path d="M34.9579 26.9966H37.2742V27.2363H36.2551V29.9391H35.977V27.2349H34.9579V26.9966Z" fill="#E3C69E"/>
<path d="M39.5248 26.9966H39.8029V29.9377H39.5248V26.9966Z" fill="#E3C69E"/>
<path d="M43.5932 26.9338C43.7866 26.9337 43.9779 26.9746 44.1546 27.0538C44.3314 27.1329 44.4896 27.2485 44.6191 27.3932C44.7487 27.5378 44.8466 27.7083 44.9065 27.8934C44.9664 28.0786 44.9871 28.2744 44.967 28.4681C44.9863 28.6618 44.9651 28.8575 44.9047 29.0424C44.8443 29.2274 44.746 29.3975 44.6163 29.5419C44.4865 29.6863 44.3282 29.8017 44.1514 29.8807C43.9747 29.9596 43.7834 30.0004 43.5901 30.0004C43.3967 30.0004 43.2054 29.9596 43.0287 29.8807C42.8519 29.8017 42.6936 29.6863 42.5638 29.5419C42.4341 29.3975 42.3359 29.2274 42.2754 29.0424C42.215 28.8575 42.1938 28.6618 42.2131 28.4681C42.193 28.2739 42.2138 28.0775 42.2741 27.8919C42.3344 27.7063 42.4328 27.5356 42.563 27.3909C42.6932 27.2461 42.8523 27.1306 43.0297 27.0519C43.2072 26.9731 43.3992 26.9329 43.5932 26.9338ZM43.5932 29.7627C44.3622 29.7627 44.6885 29.1111 44.6885 28.4681C44.6885 27.8251 44.3618 27.1735 43.5932 27.1735C42.8245 27.1735 42.4921 27.8242 42.4921 28.4681C42.4921 29.112 42.8188 29.7607 43.5932 29.7607V29.7627Z" fill="#E3C69E"/>
<path d="M47.3529 26.9966H47.6648L49.3649 29.4846H49.3721V26.9966H49.6511V29.9377H49.3402L47.6372 27.4497H47.6301V29.9377H47.351L47.3529 26.9966Z" fill="#E3C69E"/>
<path d="M55.3082 26.9966H55.5863V29.9377H55.3082V26.9966Z" fill="#E3C69E"/>
<path d="M58.2841 28.9687C58.2717 29.5752 58.7022 29.7603 59.2365 29.7603C59.5437 29.7603 60.0108 29.591 60.0108 29.1624C60.0108 28.8267 59.6827 28.6973 59.4084 28.6311L58.7603 28.4705C58.4164 28.3847 58.1007 28.2236 58.1007 27.7623C58.1007 27.4746 58.285 26.9338 59.1079 26.9338C59.6894 26.9338 60.188 27.243 60.188 27.8481H59.9099C59.9035 27.7503 59.8775 27.6547 59.8335 27.5672C59.7895 27.4797 59.7283 27.402 59.6537 27.339C59.5791 27.2759 59.4925 27.2287 59.3993 27.2001C59.3061 27.1716 59.2081 27.1624 59.1113 27.173C58.7303 27.173 58.3784 27.3217 58.3784 27.7585C58.3784 28.0346 58.5793 28.1536 58.8208 28.2063L59.5351 28.3842C59.9484 28.4945 60.2923 28.68 60.2923 29.1585C60.2923 29.3599 60.2104 29.9995 59.1755 29.9995C58.4831 29.9995 57.9759 29.6864 58.0088 28.9687H58.2841Z" fill="#E3C69E"/>
<path d="M65.4859 26.9966H65.7845L66.4479 29.5704H66.4565L67.1708 26.9952H67.5184L68.2328 29.5704H68.2413L68.908 26.9952H69.1861L68.3804 29.9362H68.0818L67.3436 27.3049H67.3351L66.5988 29.9377H66.2964L65.4859 26.9966Z" fill="#E3C69E"/>
<path d="M71.4487 26.9966H73.4664V27.2363H71.7268V28.2993H73.3555V28.5391H71.7268V29.7003H73.4859V29.9401H71.4487V26.9966Z" fill="#E3C69E"/>
<path d="M76.6861 26.9966H76.999L78.1419 29.9377H77.8434L77.4871 29.0233H76.158L75.8085 29.9377H75.5085L76.6861 26.9966ZM76.2447 28.7836H77.3943L76.83 27.2761L76.2447 28.7836Z" fill="#E3C69E"/>
<path d="M80.3654 26.9966H80.6435V29.6984H82.2808V29.9381H80.3654V26.9966Z" fill="#E3C69E"/>
<path d="M83.8275 26.9966H86.1439V27.2363H85.1247V29.9391H84.8466V27.2349H83.8275V26.9966Z" fill="#E3C69E"/>
<path d="M88.3735 26.9966H88.6526V28.2729H90.3875V26.9966H90.6656V29.9377H90.3875V28.5127H88.6526V29.9377H88.3735V26.9966Z" fill="#E3C69E"/>
</g>
<defs>
<clipPath id="clip0_2_994">
<rect width="93" height="30" fill="white"/>
</clipPath>
</defs>
</svg>
